<svg width="224" height="481" viewBox="0 0 224 481" fill="none" xmlns="http://www.w3.org/2000/svg">
<path d="M189.245 480.461L33.929 480.365C15.245 480.365 0.106255 464.436 0.118232 444.806L0.19009 35.5923C0.19009 15.9502 15.3528 0.0329518 34.0487 0.0449286L189.365 0.140746C208.049 0.140746 223.187 16.07 223.175 35.7001L223.104 444.938C223.104 464.556 207.941 480.473 189.245 480.461Z" fill="#263238"/>
<path d="M189.197 14.6087H159.087C155.051 14.6087 151.769 18.2017 151.769 22.6332V28.3701C151.769 32.8135 148.5 36.4066 144.463 36.4066H85.7768C81.7286 36.4066 78.459 32.8135 78.459 28.3701V22.6212C78.459 18.1898 75.1893 14.5847 71.1531 14.5847H60.5535H34.2044C21.1137 14.5847 10.4902 25.7232 10.4902 39.4846L10.4184 438.913C10.4184 452.663 21.0179 463.813 34.0966 463.813L189.113 463.909C202.204 463.909 212.815 452.77 212.815 439.009L212.899 39.5206C212.899 25.7472 202.288 14.6206 189.197 14.6087Z" fill="white"/>
<g opacity="0.2">
<path d="M73.9557 266.518L63.0327 295.275H71.0573L81.2496 266.518H73.9557Z" fill="white"/>
</g>
<g opacity="0.2">
<path d="M93.6695 266.518L82.7347 295.275H90.7711L100.951 266.518H93.6695Z" fill="white"/>
</g>
<g opacity="0.2">
<path d="M112.976 268.686L102.796 295.454H107.587C108.854 295.183 110.09 294.782 111.276 294.257L118.282 274.423C117.03 272.091 115.204 270.116 112.976 268.686Z" fill="white"/>
</g>
<g opacity="0.2">
<path d="M54.8046 266.482L44.756 292.927C46.9027 294.324 49.3836 295.122 51.9422 295.239L62.1345 266.494L54.8046 266.482Z" fill="white"/>
</g>
<path d="M52.7566 426.146V435.919C52.7563 436.112 52.7044 436.301 52.6063 436.467C52.5082 436.632 52.3674 436.769 52.1987 436.862C52.0299 436.955 51.8394 437.001 51.6468 436.995C51.4543 436.989 51.2668 436.932 51.1038 436.829L43.4146 431.943C43.2639 431.843 43.1402 431.708 43.0546 431.549C42.969 431.391 42.9242 431.213 42.9242 431.032C42.9242 430.852 42.969 430.674 43.0546 430.515C43.1402 430.357 43.2639 430.222 43.4146 430.122L51.1038 425.236C51.2668 425.133 51.4543 425.076 51.6468 425.07C51.8394 425.064 52.0299 425.11 52.1987 425.203C52.3674 425.296 52.5082 425.433 52.6063 425.598C52.7044 425.764 52.7563 425.953 52.7566 426.146Z" fill="#E0E0E0"/>
<path d="M115.887 430.937C115.884 432.27 115.487 433.572 114.744 434.679C114.002 435.787 112.948 436.649 111.716 437.158C110.483 437.666 109.128 437.798 107.821 437.537C106.514 437.275 105.313 436.632 104.371 435.688C103.43 434.745 102.789 433.543 102.529 432.236C102.27 430.928 102.404 429.573 102.915 428.341C103.426 427.11 104.29 426.058 105.399 425.317C106.507 424.577 107.811 424.182 109.144 424.182C110.03 424.182 110.908 424.356 111.727 424.696C112.546 425.036 113.29 425.533 113.916 426.161C114.542 426.788 115.039 427.533 115.377 428.352C115.715 429.172 115.888 430.05 115.887 430.937Z" fill="#E0E0E0"/>
<path d="M174.513 425.068H166.561C165.324 425.068 164.321 426.071 164.321 427.308V435.296C164.321 436.533 165.324 437.536 166.561 437.536H174.513C175.75 437.536 176.753 436.533 176.753 435.296V427.308C176.753 426.071 175.75 425.068 174.513 425.068Z" fill="#E0E0E0"/>
</svg>
